<?xml version="1.0" standalone="no"?>
<!DOCTYPE svg PUBLIC "-//W3C//DTD SVG 20010904//EN"
 "http://www.w3.org/TR/2001/REC-SVG-20010904/DTD/svg10.dtd">
<svg version="1.0" xmlns="http://www.w3.org/2000/svg"
 width="200.000000pt" height="200.000000pt" viewBox="0 0 200.000000 200.000000"
 preserveAspectRatio="xMidYMid meet">

<g transform="translate(0.000000,200.000000) scale(0.100000,-0.100000)"
fill="yellow" stroke="none">
<path d="M926 1929 c-69 -17 -159 -73 -226 -140 -195 -198 -281 -514 -195
-721 5 -14 -6 -20 -67 -38 -89 -27 -117 -41 -164 -82 -60 -53 -77 -104 -150
-439 l-67 -316 22 -46 c17 -34 33 -51 65 -66 42 -21 55 -21 856 -21 801 0 814
0 856 21 31 15 48 32 63 63 12 23 21 48 21 54 0 40 -134 625 -152 665 -23 50
-76 105 -125 130 -15 8 -61 24 -101 36 -61 18 -73 25 -67 39 112 263 -74 704
-350 833 -67 31 -159 43 -219 28z m299 -610 l50 -14 3 -48 c10 -149 -124 -287
-278 -287 -151 0 -280 129 -280 281 0 26 5 51 10 54 6 3 41 13 78 20 83 18
344 13 417 -6z m-565 -89 c0 -121 95 -254 213 -298 78 -29 176 -29 254 0 118
44 213 177 213 298 0 28 4 50 10 50 5 0 35 -11 65 -25 l56 -24 -7 -38 c-18
-104 -73 -213 -152 -303 l-44 -50 -268 0 -268 0 -44 50 c-79 90 -134 199 -152
303 l-7 38 53 24 c75 34 78 33 78 -25z m891 -479 c36 -36 36 -36 6 -371 l-22
-245 -535 0 -535 0 -22 245 c-30 335 -30 335 6 371 l29 29 522 0 522 0 29 -29z"/>
<path d="M933 540 c-41 -25 -53 -48 -53 -104 0 -82 79 -141 155 -116 102 34
117 177 24 226 -39 20 -88 18 -126 -6z"/>
</g>
</svg>
